<svg width="171" height="169" viewBox="0 0 171 169" fill="none" xmlns="http://www.w3.org/2000/svg">
<rect width="171" height="169" fill="#00AB37"/>
<path d="M44.9205 154.273V163H43.8977L39.1421 156.148H39.0568V163H38V154.273H39.0227L43.7955 161.142H43.8807V154.273H44.9205ZM51.0238 160.324V156.455H52.0295V163H51.0238V161.892H50.9556C50.8022 162.224 50.5636 162.507 50.2397 162.74C49.9159 162.97 49.5068 163.085 49.0124 163.085C48.6034 163.085 48.2397 162.996 47.9215 162.817C47.6034 162.635 47.3534 162.362 47.1715 161.999C46.9897 161.632 46.8988 161.17 46.8988 160.614V156.455H47.9045V160.545C47.9045 161.023 48.038 161.403 48.3051 161.688C48.5749 161.972 48.9187 162.114 49.3363 162.114C49.5863 162.114 49.8406 162.05 50.0991 161.922C50.3605 161.794 50.5792 161.598 50.7553 161.334C50.9343 161.07 51.0238 160.733 51.0238 160.324ZM49.0124 155.568L50.0522 153.591H51.2284L49.8988 155.568H49.0124ZM53.8715 163V156.455H54.8431V157.477H54.9283C55.0646 157.128 55.2848 156.857 55.5888 156.663C55.8928 156.467 56.2578 156.369 56.684 156.369C57.1158 156.369 57.4752 156.467 57.7621 156.663C58.0519 156.857 58.2777 157.128 58.4396 157.477H58.5078C58.6754 157.139 58.9269 156.871 59.2621 156.672C59.5973 156.47 59.9993 156.369 60.4681 156.369C61.0533 156.369 61.532 156.553 61.9041 156.919C62.2763 157.283 62.4624 157.849 62.4624 158.619V163H61.4567V158.619C61.4567 158.136 61.3246 157.791 61.0604 157.584C60.7962 157.376 60.4851 157.273 60.1271 157.273C59.6669 157.273 59.3104 157.412 59.0575 157.69C58.8047 157.966 58.6783 158.315 58.6783 158.739V163H57.6556V158.517C57.6556 158.145 57.5348 157.845 57.2933 157.618C57.0519 157.388 56.7408 157.273 56.3601 157.273C56.0987 157.273 55.8544 157.342 55.6271 157.482C55.4027 157.621 55.2209 157.814 55.0817 158.061C54.9453 158.305 54.8771 158.588 54.8771 158.909V163H53.8715ZM67.0455 163.136C66.4148 163.136 65.8708 162.997 65.4134 162.719C64.9588 162.438 64.608 162.045 64.3608 161.543C64.1165 161.037 63.9943 160.449 63.9943 159.778C63.9943 159.108 64.1165 158.517 64.3608 158.006C64.608 157.491 64.9517 157.091 65.3921 156.804C65.8352 156.514 66.3523 156.369 66.9432 156.369C67.2841 156.369 67.6208 156.426 67.9531 156.54C68.2855 156.653 68.5881 156.838 68.8608 157.094C69.1335 157.347 69.3509 157.682 69.5128 158.099C69.6747 158.517 69.7557 159.031 69.7557 159.642V160.068H64.7102V159.199H68.733C68.733 158.83 68.6591 158.5 68.5114 158.21C68.3665 157.92 68.1591 157.692 67.8892 157.524C67.6222 157.357 67.3068 157.273 66.9432 157.273C66.5426 157.273 66.196 157.372 65.9034 157.571C65.6137 157.767 65.3906 158.023 65.2344 158.338C65.0781 158.653 65 158.991 65 159.352V159.932C65 160.426 65.0852 160.845 65.2557 161.189C65.429 161.53 65.6691 161.79 65.9759 161.969C66.2827 162.145 66.6392 162.233 67.0455 162.233C67.3097 162.233 67.5483 162.196 67.7614 162.122C67.9773 162.045 68.1634 161.932 68.3196 161.781C68.4759 161.628 68.5966 161.437 68.6818 161.21L69.6534 161.483C69.5512 161.812 69.3793 162.102 69.1378 162.352C68.8963 162.599 68.598 162.793 68.2429 162.932C67.8878 163.068 67.4887 163.136 67.0455 163.136ZM71.2855 163V156.455H72.2571V157.443H72.3253C72.4446 157.119 72.6605 156.857 72.973 156.655C73.2855 156.453 73.6378 156.352 74.0298 156.352C74.1037 156.352 74.196 156.354 74.3068 156.357C74.4176 156.359 74.5014 156.364 74.5583 156.369V157.392C74.5242 157.384 74.446 157.371 74.3239 157.354C74.2046 157.334 74.0781 157.324 73.9446 157.324C73.6264 157.324 73.3423 157.391 73.0923 157.524C72.8452 157.655 72.6492 157.837 72.5043 158.07C72.3622 158.3 72.2912 158.562 72.2912 158.858V163H71.2855ZM78.2102 163.136C77.6193 163.136 77.1009 162.996 76.6548 162.714C76.2117 162.433 75.8651 162.04 75.6151 161.534C75.3679 161.028 75.2443 160.437 75.2443 159.761C75.2443 159.08 75.3679 158.484 75.6151 157.976C75.8651 157.467 76.2117 157.072 76.6548 156.791C77.1009 156.51 77.6193 156.369 78.2102 156.369C78.8012 156.369 79.3182 156.51 79.7614 156.791C80.2074 157.072 80.554 157.467 80.8012 157.976C81.0512 158.484 81.1762 159.08 81.1762 159.761C81.1762 160.437 81.0512 161.028 80.8012 161.534C80.554 162.04 80.2074 162.433 79.7614 162.714C79.3182 162.996 78.8012 163.136 78.2102 163.136ZM78.2102 162.233C78.6591 162.233 79.0284 162.118 79.3182 161.888C79.608 161.658 79.8225 161.355 79.9617 160.98C80.1009 160.605 80.1705 160.199 80.1705 159.761C80.1705 159.324 80.1009 158.916 79.9617 158.538C79.8225 158.161 79.608 157.855 79.3182 157.622C79.0284 157.389 78.6591 157.273 78.2102 157.273C77.7614 157.273 77.3921 157.389 77.1023 157.622C76.8125 157.855 76.598 158.161 76.4588 158.538C76.3196 158.916 76.25 159.324 76.25 159.761C76.25 160.199 76.3196 160.605 76.4588 160.98C76.598 161.355 76.8125 161.658 77.1023 161.888C77.3921 162.118 77.7614 162.233 78.2102 162.233ZM88.5579 163.136C88.0124 163.136 87.5309 162.999 87.1133 162.723C86.6957 162.445 86.369 162.053 86.1332 161.547C85.8974 161.038 85.7795 160.438 85.7795 159.744C85.7795 159.057 85.8974 158.46 86.1332 157.955C86.369 157.449 86.6971 157.058 87.1176 156.783C87.538 156.507 88.0238 156.369 88.5749 156.369C89.0011 156.369 89.3377 156.44 89.5849 156.582C89.8349 156.722 90.0252 156.881 90.1559 157.06C90.2894 157.236 90.3931 157.381 90.467 157.494H90.5522V154.273H91.5579V163H90.5863V161.994H90.467C90.3931 162.114 90.288 162.264 90.1517 162.446C90.0153 162.625 89.8207 162.786 89.5678 162.928C89.315 163.067 88.9784 163.136 88.5579 163.136ZM88.6943 162.233C89.0977 162.233 89.4386 162.128 89.717 161.918C89.9954 161.705 90.207 161.411 90.3519 161.036C90.4968 160.658 90.5693 160.222 90.5693 159.727C90.5693 159.239 90.4982 158.811 90.3562 158.445C90.2142 158.075 90.0039 157.788 89.7255 157.584C89.4471 157.376 89.1034 157.273 88.6943 157.273C88.2681 157.273 87.913 157.382 87.6289 157.601C87.3477 157.817 87.136 158.111 86.994 158.483C86.8548 158.852 86.7852 159.267 86.7852 159.727C86.7852 160.193 86.8562 160.616 86.9982 160.997C87.1431 161.375 87.3562 161.676 87.6374 161.901C87.9215 162.122 88.2738 162.233 88.6943 162.233ZM95.4656 163.153C95.0508 163.153 94.6744 163.075 94.3363 162.919C93.9982 162.76 93.7298 162.531 93.5309 162.233C93.332 161.932 93.2326 161.568 93.2326 161.142C93.2326 160.767 93.3065 160.463 93.4542 160.23C93.6019 159.994 93.7994 159.81 94.0465 159.676C94.2937 159.543 94.5664 159.443 94.8647 159.378C95.1659 159.31 95.4684 159.256 95.7724 159.216C96.1702 159.165 96.4922 159.126 96.7402 159.101C96.9902 159.072 97.1712 159.026 97.2852 158.96C97.4012 158.895 97.4602 158.781 97.4602 158.619V158.585C97.4602 158.165 97.3452 157.838 97.1152 157.605C96.8872 157.372 96.5422 157.256 96.0792 157.256C95.5991 157.256 95.2227 157.361 94.9499 157.571C94.6772 157.781 94.4855 158.006 94.3747 158.244L93.4201 157.903C93.5906 157.506 93.8178 157.196 94.1019 156.974C94.3889 156.75 94.7014 156.594 95.0394 156.506C95.3803 156.415 95.7156 156.369 96.0452 156.369C96.2552 156.369 96.4972 156.395 96.7692 156.446C97.0452 156.494 97.3112 156.595 97.5662 156.749C97.8252 156.902 98.0392 157.134 98.2102 157.443C98.3802 157.753 98.4652 158.168 98.4652 158.688V163H97.4602V162.114H97.4092C97.3402 162.256 97.2272 162.408 97.0682 162.57C96.9092 162.732 96.6972 162.869 96.4332 162.983C96.1682 163.097 95.8463 163.153 95.4656 163.153ZM95.619 162.25C96.0172 162.25 96.3522 162.172 96.6242 162.016C96.9002 161.859 97.1072 161.658 97.2472 161.411C97.3892 161.163 97.4602 160.903 97.4602 160.631V159.71C97.4172 159.761 97.3232 159.808 97.1782 159.851C97.0362 159.891 96.8722 159.926 96.6842 159.957C96.4992 159.986 96.3192 160.011 96.1432 160.034C95.9702 160.054 95.8292 160.071 95.7213 160.085C95.4599 160.119 95.2156 160.175 94.9883 160.251C94.7639 160.325 94.582 160.437 94.4428 160.588C94.3065 160.736 94.2383 160.937 94.2383 161.193C94.2383 161.543 94.3676 161.807 94.6261 161.986C94.8874 162.162 95.2184 162.25 95.619 162.25ZM108.312 157.92L107.409 158.176C107.352 158.026 107.268 157.879 107.157 157.737C107.05 157.592 106.902 157.473 106.714 157.379C106.527 157.286 106.287 157.239 105.994 157.239C105.594 157.239 105.26 157.331 104.993 157.516C104.729 157.697 104.596 157.929 104.596 158.21C104.596 158.46 104.687 158.658 104.869 158.803C105.051 158.947 105.335 159.068 105.721 159.165L106.693 159.403C107.278 159.545 107.714 159.763 108.001 160.055C108.288 160.345 108.432 160.719 108.432 161.176C108.432 161.551 108.324 161.886 108.108 162.182C107.895 162.477 107.596 162.71 107.213 162.881C106.829 163.051 106.383 163.136 105.875 163.136C105.207 163.136 104.655 162.991 104.217 162.702C103.78 162.412 103.503 161.989 103.386 161.432L104.341 161.193C104.432 161.545 104.604 161.81 104.856 161.986C105.112 162.162 105.446 162.25 105.858 162.25C106.327 162.25 106.699 162.151 106.974 161.952C107.253 161.75 107.392 161.509 107.392 161.227C107.392 161 107.312 160.81 107.153 160.656C106.994 160.5 106.75 160.384 106.42 160.307L105.329 160.051C104.73 159.909 104.29 159.689 104.008 159.391C103.73 159.089 103.591 158.713 103.591 158.261C103.591 157.892 103.694 157.565 103.902 157.281C104.112 156.997 104.398 156.774 104.758 156.612C105.122 156.45 105.534 156.369 105.994 156.369C106.642 156.369 107.15 156.511 107.52 156.795C107.892 157.08 108.156 157.455 108.312 157.92ZM112.605 163.136C112.014 163.136 111.495 162.996 111.049 162.714C110.606 162.433 110.259 162.04 110.009 161.534C109.762 161.028 109.639 160.437 109.639 159.761C109.639 159.08 109.762 158.484 110.009 157.976C110.259 157.467 110.606 157.072 111.049 156.791C111.495 156.51 112.014 156.369 112.605 156.369C113.195 156.369 113.713 156.51 114.156 156.791C114.602 157.072 114.948 157.467 115.195 157.976C115.445 158.484 115.57 159.08 115.57 159.761C115.57 160.437 115.445 161.028 115.195 161.534C114.948 162.04 114.602 162.433 114.156 162.714C113.713 162.996 113.195 163.136 112.605 163.136ZM112.605 162.233C113.053 162.233 113.423 162.118 113.713 161.888C114.002 161.658 114.217 161.355 114.356 160.98C114.495 160.605 114.565 160.199 114.565 159.761C114.565 159.324 114.495 158.916 114.356 158.538C114.217 158.161 114.002 157.855 113.713 157.622C113.423 157.389 113.053 157.273 112.605 157.273C112.156 157.273 111.786 157.389 111.497 157.622C111.207 157.855 110.992 158.161 110.853 158.538C110.714 158.916 110.644 159.324 110.644 159.761C110.644 160.199 110.714 160.605 110.853 160.98C110.992 161.355 111.207 161.658 111.497 161.888C111.786 162.118 112.156 162.233 112.605 162.233ZM117.106 163V156.455H118.077V157.443H118.145C118.265 157.119 118.481 156.857 118.793 156.655C119.106 156.453 119.458 156.352 119.85 156.352C119.924 156.352 120.016 156.354 120.127 156.357C120.238 156.359 120.322 156.364 120.378 156.369V157.392C120.344 157.384 120.266 157.371 120.144 157.354C120.025 157.334 119.898 157.324 119.765 157.324C119.447 157.324 119.162 157.391 118.912 157.524C118.665 157.655 118.469 157.837 118.324 158.07C118.182 158.3 118.111 158.562 118.111 158.858V163H117.106ZM124.827 156.455V157.307H121.435V156.455H124.827ZM122.424 154.886H123.43V161.125C123.43 161.409 123.471 161.622 123.553 161.764C123.638 161.903 123.746 161.997 123.877 162.045C124.01 162.091 124.151 162.114 124.299 162.114C124.41 162.114 124.501 162.108 124.572 162.097C124.643 162.082 124.699 162.071 124.742 162.062L124.947 162.966C124.878 162.991 124.783 163.017 124.661 163.043C124.539 163.071 124.384 163.085 124.197 163.085C123.912 163.085 123.634 163.024 123.361 162.902C123.091 162.78 122.867 162.594 122.688 162.344C122.512 162.094 122.424 161.778 122.424 161.398V154.886ZM129.014 163.136C128.383 163.136 127.839 162.997 127.382 162.719C126.927 162.438 126.577 162.045 126.329 161.543C126.085 161.037 125.963 160.449 125.963 159.778C125.963 159.108 126.085 158.517 126.329 158.006C126.577 157.491 126.92 157.091 127.361 156.804C127.804 156.514 128.321 156.369 128.912 156.369C129.253 156.369 129.589 156.426 129.922 156.54C130.254 156.653 130.557 156.838 130.829 157.094C131.102 157.347 131.319 157.682 131.481 158.099C131.643 158.517 131.724 159.031 131.724 159.642V160.068H126.679V159.199H130.702C130.702 158.83 130.628 158.5 130.48 158.21C130.335 157.92 130.128 157.692 129.858 157.524C129.591 157.357 129.275 157.273 128.912 157.273C128.511 157.273 128.165 157.372 127.872 157.571C127.582 157.767 127.359 158.023 127.203 158.338C127.047 158.653 126.969 158.991 126.969 159.352V159.932C126.969 160.426 127.054 160.845 127.224 161.189C127.398 161.53 127.638 161.79 127.944 161.969C128.251 162.145 128.608 162.233 129.014 162.233C129.278 162.233 129.517 162.196 129.73 162.122C129.946 162.045 130.132 161.932 130.288 161.781C130.444 161.628 130.565 161.437 130.65 161.21L131.622 161.483C131.52 161.812 131.348 162.102 131.106 162.352C130.865 162.599 130.567 162.793 130.211 162.932C129.856 163.068 129.457 163.136 129.014 163.136Z" fill="white"/>
<path fill-rule="evenodd" clip-rule="evenodd" d="M107.777 54.0358C96.257 51.8091 87.4574 49.6891 85.5241 49.2091L85.5108 49.0625L85.4974 49.0225C87.5241 48.5958 97.471 46.7025 108.257 47.6891C127.724 49.4758 125.471 23.2358 109.964 27.7958C115.604 13.0091 93.7908 7.0758 90.0441 26.4491C87.8041 38.0491 85.6574 46.8758 85.2041 48.7292C85.1641 48.7158 85.1241 48.7158 85.0841 48.7158L85.0308 48.7292C84.6174 46.7158 82.7108 36.7692 83.6974 25.9692C85.4841 6.50249 59.2441 8.75578 63.8041 24.2624C49.0041 18.6224 43.0841 40.4224 62.4574 44.1691C74.0441 46.4224 82.8708 48.5558 84.7374 49.0091C84.7241 49.0491 84.7108 49.1025 84.7241 49.1425V49.1958C82.6708 49.6225 72.7374 51.5158 61.9641 50.5291C42.5108 48.7425 44.7508 74.9824 60.2574 70.4224C54.6174 85.2091 76.4308 91.1291 80.1774 71.7558C82.1641 61.5558 84.0574 53.4891 84.7908 50.4358C85.0974 56.4491 84.4841 62.4758 83.2441 68.3424C81.9241 74.6491 79.9374 80.8091 77.8574 86.9425C75.6841 93.0358 73.6841 99.4225 72.8574 106.009C71.9641 112.596 72.1108 119.382 73.4041 125.969V125.982L73.4174 126.049C73.6574 127.076 74.6841 127.716 75.7108 127.476C76.7508 127.223 77.3908 126.196 77.1508 125.169C75.7108 119.036 75.3108 112.676 75.9241 106.369C76.2174 103.209 76.7508 100.063 77.4841 96.9558C78.2041 93.8358 79.1508 90.7824 80.0841 87.6491C81.9374 81.4091 83.6974 75.1025 84.7774 68.6358C85.6574 63.4625 86.0574 58.1958 85.8174 52.9558C86.4574 57.2225 87.2308 64.5158 86.5241 72.2491C84.7374 91.7024 110.991 89.4625 106.431 73.9558C121.217 79.5958 127.151 57.7825 107.777 54.0358Z" fill="white"/>
</svg>
