<?xml version="1.0" standalone="no"?>
<!DOCTYPE svg PUBLIC "-//W3C//DTD SVG 20010904//EN"
 "http://www.w3.org/TR/2001/REC-SVG-20010904/DTD/svg10.dtd">
<svg version="1.0" xmlns="http://www.w3.org/2000/svg"
 width="164.000000pt" height="255.000000pt" viewBox="0 0 164.000000 255.000000"
 preserveAspectRatio="xMidYMid meet">

<g transform="translate(0.000000,255.000000) scale(0.100000,-0.100000)"
fill="#000000" stroke="none">
<path d="M495 2538 c-51 -11 -105 -49 -130 -90 -15 -25 -20 -50 -19 -101 l0
-68 -30 7 c-145 33 -261 -51 -260 -186 0 -94 61 -178 161 -222 24 -11 147 -41
275 -69 127 -27 249 -54 270 -60 22 -6 42 -9 44 -7 2 2 -3 56 -12 119 -10 74
-14 180 -13 304 3 205 -2 230 -56 301 -45 58 -149 91 -230 72z"/>
<path d="M1140 2491 c-122 -39 -181 -128 -220 -326 -12 -60 -37 -179 -56 -264
-19 -84 -33 -156 -30 -158 2 -2 30 1 63 8 33 7 165 13 308 15 243 4 251 5 301
29 84 41 125 108 126 206 1 75 -31 141 -85 177 -34 23 -51 27 -109 26 l-69 0
7 29 c22 100 -10 191 -82 233 -45 26 -115 38 -154 25z"/>
<path d="M750 1713 c-45 -10 -142 -16 -313 -18 -246 -3 -247 -3 -303 -30 -160
-78 -173 -301 -23 -390 25 -15 50 -20 97 -19 l63 2 -7 -32 c-10 -46 -7 -122 7
-148 36 -70 101 -111 175 -111 92 0 175 57 223 152 11 21 45 157 76 302 31
145 62 269 67 274 7 7 9 -29 4 -115 -10 -207 -37 -332 -147 -667 -85 -262
-105 -344 -121 -501 -9 -95 -9 -149 0 -241 6 -65 15 -126 18 -135 10 -26 39
-37 59 -23 16 12 16 18 0 117 -14 81 -16 137 -12 264 7 181 16 230 101 524 85
292 113 451 116 642 1 71 3 81 12 60 7 -16 12 -118 14 -272 2 -219 5 -252 22
-290 39 -87 117 -138 212 -138 133 0 222 96 205 220 l-7 50 27 -10 c37 -14
120 -12 158 4 44 18 94 77 108 128 26 97 -36 210 -144 264 -30 16 -123 41
-234 65 -101 21 -223 48 -271 59 -48 11 -94 22 -102 24 -8 2 -44 -3 -80 -11z"/>
</g>
</svg>
