<?xml version="1.0" standalone="no"?>
<!DOCTYPE svg PUBLIC "-//W3C//DTD SVG 20010904//EN"
 "http://www.w3.org/TR/2001/REC-SVG-20010904/DTD/svg10.dtd">
<svg version="1.0" xmlns="http://www.w3.org/2000/svg"
 width="512.000000pt" height="512.000000pt" viewBox="0 0 512.000000 512.000000"
 preserveAspectRatio="xMidYMid meet">

<g transform="translate(0.000000,512.000000) scale(0.100000,-0.100000)"
fill="#000000" stroke="none">
<path d="M1930 4419 c-169 -24 -303 -130 -345 -272 -17 -56 -19 -171 -5 -232
5 -22 7 -41 5 -44 -3 -2 -30 3 -62 12 -90 24 -145 29 -212 18 -354 -57 -464
-481 -194 -742 116 -113 234 -162 543 -224 324 -66 805 -171 873 -191 36 -11
14 -22 -70 -38 -252 -46 -540 -59 -1023 -48 -200 5 -306 -29 -421 -135 -104
-97 -151 -206 -151 -353 0 -280 200 -465 462 -429 36 5 72 12 81 14 15 5 15
-1 -3 -62 -21 -78 -25 -200 -8 -265 47 -173 204 -288 394 -288 216 0 392 138
491 385 16 41 54 197 90 375 35 168 82 386 104 485 23 99 47 204 53 232 6 31
15 50 21 46 14 -8 2 -343 -18 -498 -44 -346 -108 -599 -300 -1170 -145 -433
-196 -625 -224 -845 -6 -47 -14 -100 -17 -118 l-5 -32 71 0 c60 0 70 2 70 18
0 45 32 288 51 382 29 152 61 271 150 575 188 633 258 1010 262 1397 1 97 5
174 8 170 9 -11 28 -180 40 -373 8 -132 8 -231 -1 -409 -11 -207 -10 -244 4
-308 54 -256 236 -412 480 -412 186 0 338 86 404 228 24 50 27 69 27 162 0 58
-4 119 -8 136 l-8 32 68 -20 c52 -15 92 -18 169 -16 89 3 107 7 166 36 205
101 280 348 173 568 -61 124 -202 240 -362 295 -32 11 -179 45 -328 75 -486
99 -845 182 -845 194 0 11 75 27 259 52 140 20 200 22 586 23 464 1 468 1 579
57 159 80 256 239 258 423 4 282 -202 476 -463 436 -37 -6 -75 -14 -85 -18
-14 -5 -16 -3 -10 13 46 112 48 281 4 376 -75 162 -259 258 -438 228 -186 -31
-342 -170 -421 -374 -20 -50 -56 -198 -95 -391 -90 -435 -177 -810 -189 -810
-21 0 -68 366 -81 626 -3 79 -1 225 6 345 12 189 11 217 -4 294 -45 221 -189
369 -396 406 -84 15 -83 15 -160 3z"/>
</g>
</svg>
